<svg width="187" height="186" viewBox="0 0 187 186" fill="none" xmlns="http://www.w3.org/2000/svg">
<g clip-path="url(#clip0_22_11794)">
<path d="M130.533 115.371C128.764 114.101 127.801 116.411 126.058 115.547C125.685 115.362 125.092 114.442 125.419 114.049C126.936 112.213 129.13 110.816 130.241 108.632C130.954 107.231 130.102 105.382 130.099 103.985C130.099 103.072 130.225 102.637 129.729 101.987C127.597 99.2018 127.153 103.364 123.472 101.987C122.334 101.561 120.714 101.941 119.68 101.434C118.455 100.833 117.613 99.413 116.595 98.3894C115.024 96.8101 114.858 93.3233 116.741 92.069C117.801 91.5653 118.199 93.5736 118.77 94.0122C119.803 94.8051 121.877 95.3251 123.219 94.9189C126.537 93.9083 127.474 93.4501 129.613 90.3338L131.191 88.0331C131.651 87.3605 131.664 86.1874 132.62 85.8137C133.449 85.4855 134.302 85.3425 134.911 84.4814L133.142 80.9134C132.15 78.9117 131.301 76.845 130.475 74.775C129.525 72.3964 129.587 70.0794 129.7 67.6195L129.794 65.5691L129.729 60.9385C129.713 59.8109 129.519 58.7158 129.373 57.4745L120.338 63.6291C119.635 64.1068 118.566 64.5422 117.986 65.0752L113.766 68.9778C112.577 70.0794 111.002 70.7781 109.994 71.9024C108.714 73.329 108.137 75.2982 106.559 76.6143C106.106 76.9912 106.342 78.2098 105.782 78.7459C104.738 79.7435 104.106 81.0694 103.478 82.3302L99.8643 89.5734C99.2453 90.8147 98.9375 92.0463 98.2861 93.3071C97.6348 94.5679 97.5959 96.3064 97.288 97.7297L96.264 102.429C95.6775 105.116 95.7099 107.729 94.9062 110.218C95.0488 111.859 95.5478 113.909 95.7941 115.423C95.8978 116.057 96.7242 115.17 97.0612 115.024L102.159 112.808C105.13 111.517 106.997 108.814 107.499 105.551C107.619 104.784 109.022 103.806 109.67 104.411C110.438 105.126 112.172 110.036 112.088 109.483C112.117 109.678 111.812 109.62 111.634 109.945C112.285 110.666 111.932 114.962 111.08 115.927C107.48 120.012 115.263 116.804 117.755 121.591C120.646 124.85 120.86 122.829 122.879 124.581C123.857 125.429 125.069 125.37 126.22 125.477C126.635 125.516 127.03 126.001 127.471 125.887C127.885 125.78 127.869 125.38 128.09 124.746L129.946 125.536C131.826 126.335 129.865 129.289 128.54 130.69C126.631 132.701 124.052 133.202 121.181 132.464C122.01 136.25 124.159 134.596 125.312 138.521C126.187 141.501 127.746 140.968 126.57 147.636C126.359 148.819 126.366 149.738 126.281 150.986C126.009 155.064 124.723 153.326 124.311 157.521C121.897 152.546 122.551 154.064 123.235 150.216C123.559 148.383 123.605 146.677 123.637 144.786C123.657 143.613 124.57 142.528 123.566 141.407C122.94 140.711 122.782 139.298 122.522 138.32C122.338 137.614 123.122 136.89 122.61 136.155C119.379 136.318 119.628 133.465 117.383 133.133C116.456 132.997 116.125 132.214 115.396 131.785C112.347 129.991 113.102 132.279 111.284 131.109C110.16 130.388 109.236 129.478 107.778 128.906C105.396 132.055 109.097 131.327 111.031 136.253L112.7 140.503C113.254 141.914 113.445 142.706 114.985 143.041C115.623 143.181 116.002 144.971 115.4 145.371C112.583 147.243 114.11 146.921 110.905 146.573C110.218 148.153 105.859 148.575 104.861 148.279C103.863 147.984 102.81 148.565 101.773 148.643C100.83 148.715 99.9421 148.315 99.1514 149.046L96.9737 147.461C94.5076 148.975 92.7772 145.644 90.4634 144.188L87.2617 142.174C86.3576 141.605 85.4016 141.325 85.4438 139.824C82.5208 142.141 80.1131 145.677 78.8071 148.604C78.1882 149.995 78.5543 151.877 77.7474 153.157C76.9794 154.376 75.3818 153.716 74.6235 152.939L70.9811 149.202C70.845 151.769 69.9506 151.652 70.696 153.888C71.101 155.107 70.615 156.543 71.1918 157.7C73.8199 162.974 72.245 162.33 76.7461 166.22C77.2873 166.688 78.3145 166.587 78.8168 167.52C79.5816 168.937 83.0393 170.545 83.1462 170.643C84.6855 172.001 86.2604 172.966 88.1853 173.697C88.7492 173.912 88.814 175.143 89.6047 175.225C90 175.267 90.5315 175.017 90.7453 175.221C91.0013 175.462 91.3675 175.91 91.4356 176.18C92.0383 178.591 94.0604 178.409 95.7358 178.893C96.1474 179.014 100.917 182.328 102.884 182.081C103.387 182.019 104.275 183.095 104.89 182.588C106.313 181.421 107.425 183.472 113.449 178.637C116.43 176.242 115.39 179.543 117.519 176.567C117.205 175.663 116.521 174.552 116.893 173.493C117.201 172.612 118.556 172.895 118.971 172.446C119.463 169.795 121.566 168.388 121.236 165.612C121.041 163.984 121.933 162.496 123.634 162.09C124.016 165.281 123.627 168.589 121.832 171.163C121.463 171.692 121.265 172.67 120.915 173.038C119.991 173.996 119.7 174.825 119.107 175.829C117.775 178.081 115.296 179.377 113.802 181.525C113.682 181.698 113.565 181.847 113.426 181.945C113.313 182.023 113.17 181.834 112.846 181.444C112.852 182.783 111.621 182.893 110.847 183.469C109.648 184.359 108.815 184.739 107.253 184.863C103.264 185.181 102.852 186.049 99.1125 185.994C92.7383 185.903 95.8784 183.943 90.0259 181.902C89.0246 181.555 89.0635 180.144 88.37 179.527C83.1559 174.887 80.7741 178.006 79.6756 173.951C78.5965 174.276 77.9775 173.382 77.2808 173.064C75.9684 172.462 75.5147 171.666 74.6657 170.701C73.2301 169.067 70.8386 168.16 69.8729 166.071C69.5132 165.294 69.1113 164.81 68.5669 164.137C67.5818 162.925 67.5688 161.154 66.6485 159.877C65.5338 158.333 64.7625 156.579 65.4301 154.678L64.6232 153.859C64.8208 155.458 59.085 157.183 58.0642 157.099C55.3649 156.874 56.5963 158.057 52.0595 156.39C51.2785 156.104 50.9123 155.22 50.8119 154.675C50.6336 153.726 51.6803 153.433 52.3868 152.949C53.3849 152.263 54.2015 151.142 54.9922 150.2C56.1361 148.842 55.3033 146.473 59.3896 141.93C60.216 141.013 61.2789 140.364 61.6807 139.178C59.9276 138.505 58.4142 137.865 56.9916 136.874C54.7297 135.294 54.4899 138.622 48.631 141.517C47.9667 141.845 45.2608 144.146 42.879 145.478L36.3363 149.141C34.9234 149.933 33.0017 150.193 31.4884 150.668C30.7819 150.385 29.9945 149.605 29.1584 149.618C28.0728 149.638 27.6807 150.349 26.7604 150.785C18.8793 154.512 20.3927 152.692 15.6679 152.91C13.1922 153.024 12.8778 150.411 9.90622 151.909C8.49658 150.756 8.15956 148.825 7.11286 147.526L4.93196 144.806C4.28709 144 3.09456 143.304 2.79967 142.193L1.25068 136.321L0.453499 131.788C0.142405 130.014 -0.340439 127.547 0.353041 125.809L2.83207 119.57C4.31301 115.839 3.44778 115.833 4.42967 111.644C4.81854 109.987 4.62086 108.031 5.71293 106.588C6.42586 105.649 6.8925 104.56 7.63783 103.696C9.72475 101.278 11.9607 99.0653 15.0814 98.0839C16.4295 97.6615 17.6901 97.5023 19.0965 96.3227C17.2234 92.9139 15.1819 93.5996 13.7819 88.5173C13.3769 87.0452 13.5162 85.0013 15.4119 84.7836C16.005 84.7153 16.5947 85.6219 17.1456 85.8169C18.7594 86.3921 20.4964 85.8624 22.1296 86.2069C23.7629 86.5513 25.0753 86.782 26.7928 86.2361C28.5103 85.6902 32.386 87.8609 33.5785 87.1525C34.2688 86.743 34.7095 85.0013 34.4049 84.2669C33.5883 82.2879 34.191 80.0588 35.2539 79.8475C36.0576 79.6883 36.3103 80.2927 36.8191 80.8549C38.7829 83.0256 43.4914 83.5487 44.914 84.6276C45.6756 85.2028 46.4177 85.7162 47.1468 86.3563C49.2467 88.2086 49.8753 91.8058 50.1313 94.5549C50.2513 95.832 49.5675 97.2033 50.3193 98.3699C53.9585 97.8045 53.777 96.1504 57.2962 92.8262L64.8403 85.6999C65.537 85.0403 66.1495 84.5301 66.7457 83.734C67.4748 82.7591 68.6641 82.3854 69.4354 81.0271C68.4179 80.6502 67.5494 80.0945 66.8915 79.1879C65.9518 77.8913 61.6062 78.7134 60.8576 78.7362C57.5036 78.8272 52.0141 77.1602 50.1346 74.5995C49.3342 73.5109 50.4003 71.8537 50.436 70.6059L44.9464 68.4092C43.9548 68.0127 43.1803 67.0671 42.1952 66.7032C40.5814 66.102 40.1925 64.8184 39.418 63.5706C38.9611 62.8362 38.1704 62.4463 37.9339 61.3707C37.7491 60.5291 36.5015 59.9864 36.508 58.9303C36.5145 57.6792 36.184 56.0837 36.7997 55.0438L38.4426 52.2752C38.1413 51.1152 36.8418 50.501 36.3719 49.4514C35.902 48.4018 35.6849 47.4692 35.1049 46.4391C34.1943 44.8176 33.9285 42.5624 34.2202 40.7329C34.4211 39.4558 35.7335 38.6759 36.5761 37.7076C35.7076 35.5142 34.7905 33.324 34.4859 30.9973L37.7718 29.3888C38.7699 28.9014 39.6222 28.8104 40.5036 28.4757C43.7766 27.2376 49.5772 30.7081 50.1184 30.6496L51.3433 30.5196C52.2183 30.4286 54.4348 31.9852 55.42 31.1403C56.4051 30.2954 56.6384 28.5049 58.223 28.0792C59.4123 27.7608 60.5984 28.5049 61.7812 28.6251C63.0968 28.7584 63.9232 29.1126 64.9958 29.7625C66.6712 30.7763 68.5702 31.4522 69.915 32.8788C70.9034 32.2939 70.9909 31.2248 71.7103 30.6236C73.243 29.3465 75.492 29.8275 76.7947 31.2865C77.8382 32.4563 78.7941 34.2436 80.3302 34.7375C84.6012 36.1121 87.8807 38.286 89.6986 42.3869C90.2366 43.6022 90.6967 44.6421 90.5153 46.1726C91.9735 45.37 92.2425 44.1124 93.4447 43.7127C94.1706 43.4723 96.4325 45.0288 96.9802 47.4529C97.395 49.2857 98.163 51.1899 97.719 53.0941C97.5408 53.861 97.3658 54.3614 97.6283 55.0796C98.6847 57.9684 101.345 54.8554 106.089 55.645C110.218 56.3339 110.629 58.2154 112.486 57.455C114.751 56.5289 116.368 54.3744 118.361 53.0844C120.594 51.6383 126.032 45.8022 127.053 45.188L130.867 42.8841C130.799 42.9263 134.661 37.8506 136.755 36.4955C138.382 35.4394 139.111 33.9056 140.274 32.5603C141.765 30.8413 142.769 29.0216 142.406 26.8022C142.423 26.1393 142.902 24.716 143.236 24.1538C143.745 23.2959 145.848 23.9881 146.512 23.4616C147.74 22.49 146.603 20.5371 146.622 19.3315C146.635 18.4834 146.966 17.9212 146.596 17.0633C146.11 15.9195 146.473 14.3694 147.698 13.999C148.505 14.5384 149.095 15.2143 149.756 15.8675C151.386 17.4727 148.787 18.8993 150.346 19.5882C150.3 17.9797 151.107 16.5141 150.806 15.1623C150.602 14.246 149.105 13.765 149.085 12.7577C149.066 11.7503 150.258 11.9745 150.705 11.5001C152.034 10.0931 151.185 7.02875 152.666 6.65505C157.209 9.59263 156.056 3.1683 159.74 4.28614L161.487 0.96837C161.795 0.393203 162.177 9.10721e-06 162.764 9.10721e-06C164.497 -0.00648996 164.795 3.46726 165.693 4.43562C166.795 5.62495 167.158 6.86952 166.202 8.27982C165.466 9.36516 166.448 10.5057 166.691 11.5943C167.048 13.1996 165.693 14.5547 165.249 16.0072C164.808 17.4403 163.736 18.8993 162.206 18.7011C161.934 17.9147 161.746 16.9496 161.143 16.6311C158.146 15.0616 155.728 18.8051 155.087 19.4972L151.007 23.9036C150.236 24.7355 149.173 25.1611 148.46 26.1717C147.851 27.0296 146.515 27.1304 145.689 27.3058C146.049 28.7876 142.899 33.09 142.18 33.4962C141.81 33.7042 138.699 38.2568 138.443 38.5395C136.781 40.3917 135.404 42.3317 133.864 44.3139C132.856 45.6137 130.692 45.9062 129.626 47.1247C129.107 47.7162 128.777 48.2101 128.054 48.561C126.029 49.5456 124.872 51.7228 123.076 52.9609L118.319 56.2462C116.378 57.5882 114.674 59.0928 112.703 60.3373C110.438 61.7704 108.601 63.5934 106.874 65.5561C105.947 66.6089 104.667 66.5504 103.75 67.1029C102.833 67.6553 102.185 68.4969 101.151 69.0071C100.305 69.423 100.098 70.7586 98.5259 70.2614C97.9945 70.1704 97.1617 71.4345 96.5621 71.3727C95.1395 71.2265 94.4752 72.0779 93.4285 72.5133C91.4388 73.342 89.6111 74.2681 87.6668 75.1974C86.565 75.7239 85.2753 75.7954 84.2804 76.6727C83.2175 77.6086 81.8014 77.8523 80.6445 78.5445L71.9015 83.7827L69.4224 85.8267C68.8618 86.2881 68.0711 86.7495 67.5526 87.2565C66.0587 88.7188 64.8273 90.454 63.0288 91.7213C61.2303 92.9886 59.9859 94.4672 58.5147 95.9425C57.6333 96.8296 56.7842 97.4015 56.3403 98.6721C56.0778 99.4227 54.9663 99.8322 55.2417 101.09C55.8607 100.115 59.179 98.4251 59.6813 97.5282C60.4623 96.1342 62.358 96.04 63.0742 95.1138C64.1144 93.7685 65.1028 93.1446 66.4735 92.1503C67.4749 91.4224 68.4373 90.1713 69.6169 89.5734C67.7114 90.5417 75.3041 84.7738 74.5976 85.5667C75.6216 84.4196 76.2568 83.6527 77.8155 83.0678C81.5875 81.6543 85.3563 80.0945 88.7654 77.9433C91.0467 76.5038 91.28 77.1439 93.9081 75.9448C95.172 75.3697 96.3191 75.1032 97.7028 74.7978L101.122 74.0439C101.838 75.1422 101.394 76.2665 100.752 77.2479C95.9691 84.5723 92.8809 92.8717 91.1148 101.415C90.4667 104.55 90.4278 107.543 90.0907 110.767L89.4686 116.687C89.3162 118.14 89.2385 119.706 90.8879 120.847C91.2282 119.966 91.9897 119.04 92.048 118.137L92.4985 111.089C92.6119 109.288 92.5925 107.862 92.9165 106.14C93.3378 103.894 93.3475 101.684 93.9081 99.465C94.3424 97.746 94.3391 95.9782 95.1363 94.1682C96.1441 91.8838 97.0158 89.5896 97.8973 87.2597C99.4884 83.0451 102.243 79.3081 104.165 75.2559C105.043 73.407 106.229 72.0552 107.765 70.7423C108.478 70.1347 108.41 68.6366 109.81 68.0842C110.542 67.795 111.232 66.7942 112.14 66.6544C113.42 66.453 113.779 65.2571 114.632 64.63C116.083 63.5576 117.768 62.898 118.912 61.3869C119.152 61.0685 119.875 61.3642 120.128 61.1855L124.159 58.3389C126.758 56.5029 124.927 56.8408 129.224 53.6076L133.466 50.4133C134.532 50.1176 133.764 51.7846 133.709 52.285L133.287 55.9765L133.336 64.5065C133.346 66.219 133.683 67.8893 133.589 69.6148C133.443 72.3151 134.555 74.749 135.634 77.1309C136.249 78.4957 136.784 80.0133 138.456 80.4097C138.809 80.4942 139.406 80.0003 139.931 80.1562C137.17 78.3755 140.203 78.1058 137.39 74.2973C136.901 73.6344 137.04 72.5361 136.7 71.7367C133.524 64.292 135.997 66.0208 134.438 61.4324C134.081 60.3796 135.154 59.5802 135.167 58.8945C135.196 57.4842 134.83 56.4022 135.429 55.0049C135.721 54.3225 136.191 53.0129 136.026 52.3532C135.776 51.3589 137.056 48.665 137.277 48.0119C138.66 43.9012 138.485 43.3813 141.463 40.4794C141.243 40.6939 143.08 36.3818 145.018 36.255C145.926 36.1933 146.93 35.8846 147.572 35.2412C145.352 33.1875 151 30.6756 151.794 30.4319C152.647 30.1719 153.706 31.1403 154.471 30.2499C153.755 29.5383 153.003 29.1158 152.789 27.9947C154.017 27.725 154.607 26.6527 155.492 26.084L158.376 24.2253C172.168 15.3443 167.829 23.5494 173.454 17.7035C174.436 18.3404 173.234 19.2177 173.354 19.8937C173.707 21.8726 176.468 23.5819 175.872 25.0474C175.34 26.3505 173.354 26.2952 172.657 26.9776C171.607 28.3749 171.079 30.0159 169.115 30.4514C168.538 30.5781 167.955 31.2638 167.174 30.8251C166.523 30.4611 166.066 30.6854 165.476 30.8868C164.76 31.1305 165.013 31.6895 164.633 32.4433C163.908 33.8861 161.685 34.0161 160.285 33.272C158.606 32.3784 157.151 32.2094 155.553 33.4052C154.815 33.9544 153.411 33.1972 152.656 33.3825C150.673 33.8699 151.068 36.0568 150.994 37.2137C150.547 39.2446 147.653 39.2219 146.344 39.953C142.617 42.036 141.162 45.8249 139.545 49.4222C139.049 50.5237 138.258 51.1542 137.847 52.545L137.082 55.1511C136.693 56.4769 136.233 57.7215 135.728 59.0928C137.49 59.9279 136.463 61.8581 136.778 62.8135C137.293 64.3863 137.831 65.7738 137.811 67.3953C137.811 67.1419 139.914 73.1275 139.866 73.9106C139.84 74.3428 140.417 74.7848 140.708 74.7133C141.655 74.4826 141.787 70.5929 141.881 69.527C141.956 68.6659 143.602 68.6756 144.169 69.1598C145.611 70.3914 147.06 71.506 148.145 73.03C148.68 73.7807 149.283 74.528 150.268 74.0569L154.588 71.9934L159.199 71.0413C168.318 69.1598 164.118 69.2216 169.28 66.128C169.841 65.7933 170.479 66.7454 170.304 67.3531C169.685 69.4945 168.966 71.636 168.065 73.6344C169.316 75.1292 170.917 75.3339 172.466 75.8669C175.405 76.8742 177.56 79.0286 179.867 81.0629C180.629 81.7355 181.07 82.7819 181.462 83.773L183.74 89.5311C184.151 90.5742 183.84 90.9219 183.623 91.7213C182.865 94.5029 184.446 94.6849 184.112 97.0408L185.211 97.9962L185.188 99.5332C185.182 100.066 186.196 100.004 186.734 100.294C186.556 101.041 186.076 101.535 185.665 102.282C186.831 102.919 186.663 103.868 186.805 104.862C186.954 105.909 187.12 106.607 186.844 107.634C186.498 108.928 187.483 110.283 185.519 113.058C184.466 112.72 183.406 112.899 182.622 113.438C181.685 111.426 183.079 111.774 184.67 108.694C185.425 107.231 184.109 105.772 184.145 104.326C184.158 103.858 185.059 103.478 185.046 103C184.984 100.862 183.315 102.474 183.387 99.0718C183.4 98.5031 182.816 97.8012 183.416 97.0896C182.952 96.4819 182.515 96.3747 181.779 95.9522C181.896 94.4347 180.373 92.8717 180.068 91.7018C181.364 89.0437 178.95 85.5407 178.714 84.1044C178.497 82.7819 178.594 81.5535 176.97 81.0174C176.714 80.9329 176.546 80.4065 176.27 80.3772C175.92 80.3415 175.635 80.6014 175.327 80.8061C175.172 80.3285 175.084 79.6396 174.647 79.88C174.478 80.1075 174.582 80.7054 174.436 80.9296C173.5 82.3887 170.596 79.1716 169.417 78.252C168.768 77.7483 167.061 77.6931 166.406 78.1935C164.394 79.7371 164.465 83.253 162.605 81.9402C161.26 80.9914 160.019 81.0726 158.457 81.0986C157.611 81.1149 156.25 80.7931 155.958 81.8915C155.813 82.4439 156.257 83.9257 156.866 83.9549C157.592 83.9874 160.628 84.6893 161.519 85.2223C162.261 85.6642 163.616 85.3132 164.355 86.1224C164.672 86.4701 166.088 86.4083 165.726 87.2012C165.363 87.9941 164.105 86.9413 163.694 87.2012C162.336 88.0591 159.011 88.4945 158.408 86.925C157.475 87.1557 156.406 86.6391 155.385 87.029C157.511 87.9226 159.598 88.8975 161.976 89.1932L165.447 89.6221C165.823 89.6676 166.613 89.3817 167.012 89.8528C167.375 88.995 167.893 88.813 168.791 88.6375C169.598 88.4815 169.543 86.4408 168.823 86.1159C167.848 85.6804 167.304 85.401 166.659 84.5658C166.127 83.877 165.035 83.6657 164.951 82.3822C166.156 82.2229 167.566 82.2847 168.681 82.8274C170.087 83.5098 170.24 84.6308 170.69 85.9404C170.982 86.7853 172.443 87.5099 172.113 88.7155C171.857 89.6481 170.664 90.233 170.026 90.9674C167.612 93.7555 168.655 91.0779 165.262 93.1771C162.524 90.6522 164.731 92.5825 160.366 91.1949C158.473 90.5937 156.532 90.0153 154.597 90.7465C154.999 91.4451 156.273 92.9984 155.32 93.4761C154.367 93.9538 154.034 91.2436 152.903 92.3257C153.201 93.0081 153.765 93.3136 153.988 93.645C154.212 93.9765 154.05 95.1041 153.628 95.0326C151.807 94.7271 150.32 90.4118 147.07 90.246C147.595 91.6888 148.372 92.7709 147.812 94.1585C148.304 94.6264 149.063 94.5224 149.438 95.0391C149.876 95.6468 149.409 96.6736 149.921 97.2163C150.291 97.6062 151.059 97.5835 151.172 98.0222C151.334 98.6623 151.292 99.114 150.949 99.7087C151.629 99.4877 152.161 99.2927 152.63 99.7379C152.98 100.069 153.097 100.684 153.055 101.294L155.045 101.743C154.008 101.509 158.12 103.091 158.295 103.589C158.677 104.674 156.156 103.654 155.842 104.434C156.655 104.846 157.88 105.031 158.736 104.602C159.199 104.369 159.445 103.605 159.39 103.247C159.15 101.704 155.845 101.434 156.448 99.7347C156.879 98.5194 158.181 99.3675 158.849 99.8192C159.633 100.352 160.667 100.703 161.056 101.691C161.872 103.771 159.88 106.146 158.693 106.334C157.203 106.572 156.227 107.569 154.889 107.936C153.761 108.248 151.785 106.458 150.744 107.251C150.164 107.732 149.163 109.769 148.214 108.612C147.196 107.371 146.716 105.571 145.054 104.648C144.561 104.375 144.464 103.592 143.891 103.355C143.171 105.688 142.086 107.56 140.452 109.126C140.388 109.48 140.507 110.097 140.332 110.335C140.089 110.663 139.409 110.728 139.104 110.975C138.382 111.569 138.197 112.486 137.293 112.918C138.194 113.022 138.822 113.155 139.095 113.906C139.376 114.692 140.41 114.813 140.815 115.388C141.674 116.603 142.73 117.097 143.881 117.952C146.583 119.96 147.024 118.238 149.053 118.735C149.976 120.236 151.295 119.836 152.452 120.327C154.393 121.146 155.92 120.684 157.342 119.859L160.767 119.229C161.406 119.112 162.132 120.051 163.357 119.554C164.708 119.004 166.286 120.577 167.521 120.987C172.054 119.089 168.542 119.843 172.884 119.801C173.195 118.322 175.13 115.625 176.335 117.038C176.714 117.484 176.458 118.452 176.854 118.676C178.422 119.573 178.623 119.024 180.434 117.321C179.135 117.662 178.817 117.107 178.147 116.294C177.861 115.947 177.21 115.885 177.048 115.602C176.854 115.264 176.698 114.039 177.187 113.932C179.093 113.506 180.101 115.199 180.668 117.064C181.241 116.07 183.131 113.565 184.077 113.581C184.479 117.042 181.964 120.155 178.561 121.123C173.979 122.423 175.784 123.486 172.936 123.58C171.954 123.612 170.697 124.639 169.53 123.658C168.363 122.676 167.245 123.18 165.965 123.489C162.184 124.395 160.55 122.901 157.371 123.359C155.712 123.599 153.901 122.923 152.371 123.895C150.796 124.896 146.558 124.418 146.872 124.59C146.95 124.633 142.319 122.738 141.937 122.407C140.582 121.23 139.419 120.015 138.119 118.751C136.829 117.497 135.523 115.609 133.537 115.407C132.571 115.31 131.502 116.083 130.536 115.391L130.533 115.371ZM154.163 15.2208C155.573 14.4214 156.386 13.1021 156.629 11.5001C156.726 10.8632 155.129 10.327 154.643 10.8372C154.011 11.5066 154.445 12.3027 154.293 13.0046C154.128 13.7715 153.603 14.5352 154.16 15.2208H154.163ZM162.777 14.6099C163.185 14.3694 163.389 13.7358 163.347 13.1151C163.321 12.7219 163.049 12.1663 162.547 12.033C162.242 13.0436 161.895 13.8235 162.773 14.6099H162.777ZM172.965 23.4096C171.64 22.0091 169.958 21.9084 168.308 22.4348C167.608 23.1952 172.839 24.8167 172.965 23.4096ZM169.222 27.8128C169.151 26.8509 169.261 26.3862 168.843 26.0808C168.733 26.0028 163.71 23.7508 162.751 25.7461C166.024 28.2807 164.896 28.0402 169.222 27.8128ZM162.323 30.5781C162.825 30.2824 162.148 29.3953 161.86 29.2068C161.746 29.1321 158.661 28.8949 158.891 29.6293C159.896 29.9217 161.195 31.2378 162.32 30.5781H162.323ZM64.8694 50.8974C65.362 49.8024 63.6575 46.7835 63.0612 45.7794C62.7339 45.2303 61.5414 45.1393 61.6354 44.0929C62.1376 43.469 63.3626 43.3293 63.8227 42.5526C64.1986 41.9125 63.4403 41.1261 63.3366 40.5477C63.2718 40.187 64.2861 39.5696 64.688 39.8165C65.7217 40.4534 67.1962 41.841 67.4554 43.248L68.8197 50.683C69.241 52.9739 69.5359 55.3428 71.195 57.0878C72.4524 55.8335 71.8755 54.29 71.8529 52.8179C71.8172 50.7447 71.7783 48.834 71.0168 46.7673C70.7835 46.1369 71.6941 45.0093 71.1659 44.3854C69.8631 42.8451 71.0784 41.8085 69.6201 39.4006C68.1618 36.9927 69.7854 37.4476 66.0069 33.3142C64.3542 31.5042 61.5219 31.0038 59.1887 31.7999C58.5601 32.0144 57.7499 33.428 57.9411 34.0389C58.1453 34.6855 58.4402 35.3517 57.967 35.8456C57.4518 36.3818 57.0175 36.5085 56.444 36.255C55.919 36.0243 55.7051 35.2574 55.5107 34.6433C50.9545 35.2184 52.4613 32.895 47.3639 32.2289C46.7288 32.1444 46.3334 32.6546 45.5751 32.2386C45.0826 31.9657 44.065 32.0891 43.4979 32.1346C43.2484 32.1541 42.9081 32.7553 43.0021 32.921C43.0961 33.0868 43.5433 33.2882 43.796 33.2915C44.3761 33.194 44.5965 32.4466 45.0145 32.3231C48.4657 35.2997 43.1868 35.8521 51.3855 41.3633C52.9733 39.4493 50.1087 38.6402 50.7147 37.1129C50.8702 36.7262 51.2785 35.8229 51.8489 35.9756C52.8599 36.2421 52.9118 37.6686 52.3835 38.52L55.9125 41.8442C56.5639 42.4584 56.2657 43.6152 56.7777 44.2684C57.3319 44.9768 58.2263 45.4187 58.1453 46.4878C58.0578 47.6349 58.9036 47.8656 59.7817 48.0054C61.6483 48.3011 62.2251 50.4295 64.8727 50.8974H64.8694ZM89.1121 61.9264C89.6241 61.7834 89.8185 60.789 90.4472 60.4673C91.7013 59.8207 93.3119 59.5932 94.31 58.5176C95.1071 57.6565 94.7215 56.1974 95.1363 55.1478C96.4844 51.7131 95.0974 52.9219 94.1026 47.7746C87.2747 51.5149 90.6254 51.4791 88.895 54.3452C88.3376 55.2713 88.0913 56.1357 88.0654 57.3738C88.0427 58.3519 87.1127 60.1521 85.9947 59.7784C84.3549 59.2325 85.8132 57.4063 85.8488 56.5061C85.985 53.1689 86.4613 54.8716 87.0641 51.0047C88.0751 44.5056 86.7886 43.1896 83.0749 39.0139C82.1287 37.9481 81.1598 41.1683 80.2524 40.7004C79.1344 40.1252 79.1895 37.5321 78.0456 36.5313C77.2192 35.8099 76.3896 35.2704 75.7545 34.2761C74.9249 34.5458 73.849 34.2403 73.1232 34.6693C71.7167 35.5012 71.9177 37.2137 72.4815 38.5265C75.4628 45.4545 72.4037 44.954 73.8912 48.2556C74.3351 49.2434 73.9527 50.2085 73.9301 51.1347C73.862 54.056 74.3546 55.7035 73.9657 57.689C73.7129 58.9693 75.3138 59.8142 76.4739 59.8369C81.5745 59.9409 78.3729 57.9912 81.1889 59.499C82.7023 54.8554 83.4346 55.3071 82.8286 49.8153C83.1268 49.3637 83.7522 48.8925 83.7295 48.0866C84.7244 49.0517 85.1683 54.056 83.6712 55.2843C84.8054 59.7687 83.399 57.416 83.224 60.9223C83.2078 61.231 82.9615 61.5299 83.2434 61.6112C83.4022 61.6567 83.7814 61.7899 83.8883 61.6371C85.4341 59.473 86.7692 62.586 89.1153 61.9296L89.1121 61.9264ZM51.9201 46.2084C50.5623 45.0515 51.0776 44.2684 49.2045 44.0962C48.6115 44.0409 48.1449 44.6908 47.7301 45.2238C47.2472 45.8477 46.1617 45.5162 46.1228 46.7543C48.5564 44.7623 49.8332 50.0071 51.9201 46.2116V46.2084ZM48.4463 51.0079C50.2577 49.8576 44.2108 47.5992 44.914 47.7941C43.5303 47.4042 42.2309 47.3912 40.9508 46.3254C40.7337 47.6544 41.6929 48.0184 42.1855 48.743C42.853 49.7244 43.5238 50.3255 44.7682 50.4815C45.8732 50.6212 47.3834 51.6806 48.4463 51.0047V51.0079ZM52.7659 51.3491C53.333 50.4165 53.9552 50.0526 54.7783 49.5814C55.2223 48.8535 50.0698 48.7658 50.2772 49.8218C51.3628 50.0103 52.0206 50.3743 52.7659 51.3491ZM62.7728 61.8939C62.1765 61.5137 61.6872 61.0522 61.0715 60.8053C60.5854 61.0945 60.0151 61.8516 59.4707 61.6014C58.6897 61.244 58.7188 59.6614 59.3896 59.2747C60.0604 58.888 61.0553 59.4145 61.7585 58.9043C62.0728 58.6768 62.264 58.1634 62.6788 58.2804C62.9121 58.3454 63.0936 58.5631 63.5214 58.7256C63.6445 57.9197 64.2343 57.572 64.6588 56.6621C63.0158 57.2698 60.0928 55.9537 60.4882 54.9724C60.5562 54.8034 60.8997 54.8651 61.0909 54.7221C61.0715 54.2022 61.1557 53.7148 61.4571 53.1981C59.853 52.3727 59.7785 50.8779 58.0254 51.1834C57.5036 51.2744 58.2684 52.272 54.0622 52.7724C52.5553 52.9511 51.3271 53.7505 49.9952 54.0202C48.4851 54.3257 47.0399 53.848 45.5297 54.8326C45.0437 55.1478 43.5951 54.7124 43.216 55.3136C42.8044 56.4541 44.0585 57.221 44.8136 57.8319C46.1843 58.94 44.7747 60.4218 48.6374 61.7314L51.4924 62.6997L60.6567 62.69C61.5349 62.69 62.3839 62.885 62.7696 61.8906L62.7728 61.8939ZM67.0763 53.3346C66.723 52.9999 66.1559 53.3833 65.8935 53.2274C65.9712 53.9163 65.9064 54.5109 66.1851 54.7514C66.4832 55.0081 67.18 55.1901 67.4262 54.9626C67.2318 54.4459 67.3647 53.6043 67.0763 53.3346ZM106.595 62.2708L109.103 60.3536C108.938 59.421 104.877 58.1894 104.213 58.0692C102.791 57.8157 97.7385 59.1578 97.5538 59.7557C97.4663 60.0416 97.638 60.4511 97.8973 60.5291C100.221 61.2277 100.02 60.0156 103.941 61.1465C104.91 61.4259 105.911 61.4064 106.595 62.2708ZM59.9243 71.7887C60.3651 71.0803 60.4104 70.6449 60.8997 70.5214C61.9173 70.2647 63.3917 71.5287 64.863 72.0194C65.106 71.3662 64.743 71.0933 64.8143 70.4921C65.7023 70.6091 66.0782 70.1249 66.6453 69.7025C67.2804 69.2281 68.8294 69.5108 69.2118 68.7471C69.7757 67.5805 70.615 67.0021 71.8917 66.6999C72.3746 65.5561 75.6735 64.0256 74.5684 62.4983C73.8717 61.5332 70.602 60.828 69.147 63.4114C67.9545 63.5771 66.5643 64.8639 65.4916 64.8119C62.9932 64.6852 61.0618 65.4489 58.7901 66.1053C57.2217 66.5569 55.2709 65.5886 53.5923 66.505C53.0608 66.7942 52.0109 65.8193 51.3044 66.4367C51.9525 66.9761 53.3428 66.6414 53.9811 67.4278C54.5709 68.1557 55.6338 69.0721 55.6079 69.8292L55.5528 71.5515C55.5398 71.9674 56.2884 72.0617 56.9333 72.3899C56.9819 70.0957 59.1952 72.965 59.9211 71.7952L59.9243 71.7887ZM77.984 73.6247C79.1992 74.2421 79.9575 73.3257 80.8033 72.7668L82.6828 73.2802L85.4665 70.7651C86.7789 69.579 89.5496 68.159 88.114 65.0557C87.7997 64.3798 86.4872 63.7948 85.7419 64.279C84.2059 65.7446 83.2078 68.2564 81.244 69.2898C80.1422 69.8715 79.4423 69.9072 79.0275 71.2395C78.5349 72.0844 76.9016 72.5003 76.0753 73.2185C75.5827 73.6442 75.1129 74.7003 75.7869 74.775C76.6975 74.879 77.4493 74.0439 77.9905 73.6247H77.984ZM94.9905 69.527C97.3528 68.6756 99.9485 67.6293 102.019 65.7803C101.235 64.0061 96.5881 64.175 96.1927 64.6235C95.3631 65.5626 95.4571 67.1516 94.4396 68.0257C93.7785 68.5944 92.3462 69.41 93.0721 70.4109C93.6359 70.9016 94.472 69.7122 94.9905 69.527ZM70.8742 72.9943C70.9455 72.3184 71.195 71.8082 71.6617 71.3662C71.9177 71.1225 72.6598 71.3988 72.9806 71.155C73.5639 70.7131 73.256 69.6862 73.8166 69.1371C74.0824 68.8771 74.3351 68.6561 74.4032 68.4124C74.4453 68.2629 74.037 67.7463 73.9495 67.8763C73.6157 68.4677 72.4977 68.5879 72.1704 69.0168C70.4951 71.2265 68.2105 71.4962 66.0036 74.0439C68.0387 74.2031 70.683 74.853 70.8774 72.9975L70.8742 72.9943ZM59.6878 74.2193C60.2095 73.6279 60.5238 72.874 60.0313 72.3963C59.5355 73.03 59.0526 73.004 58.2554 72.8188C58.1679 73.3972 59.273 74.5605 59.691 74.2193H59.6878ZM145.624 83.0321C145.793 83.5163 145.268 85.375 145.906 85.7649C146.052 85.8527 146.564 86.0054 146.622 85.7129C146.784 84.8843 146.114 84.1889 146.201 83.357C149.063 82.7266 149.007 80.7704 152.102 80.5137C152.313 79.5226 153.279 79.0026 154.063 79.3828C155.184 79.9288 155.472 79.0092 156.176 78.7167C157.469 78.174 158.301 77.5859 159.27 76.5558C160.23 75.5354 161.775 74.9667 162.423 73.5077C160.673 72.6823 159.215 73.4395 157.812 73.7872C153.363 74.8887 156.642 74.4988 151.853 75.9578C151.668 75.2559 147.29 81.8492 147.854 81.6153C146.726 82.0832 145.132 81.794 144.701 80.9069C144.088 79.6428 147.047 77.9433 146.596 76.1333C146.674 76.4518 145.563 73.6214 144.639 73.5954C143.524 73.5629 143.006 80.1692 143.473 81.1993C143.654 82.1157 145.326 82.1677 145.628 83.0353L145.624 83.0321ZM69.2507 111.849C70.0997 113.366 71.9501 113.21 73.5574 112.931C74.0402 113.825 73.3694 114.686 73.2139 115.339C75.5341 118.595 76.3637 119.017 80.5829 118.969C81.8208 118.956 83.237 119.719 84.3582 119.209C85.6123 118.637 84.6984 117.152 84.7568 116.359C84.8443 115.189 85.4567 114.052 85.5118 112.882L85.7516 107.93C85.784 107.267 87.2358 99.0653 87.333 98.8703C88.0168 97.4535 88.1594 96.2382 88.4024 94.7336C88.5385 93.892 89.3065 93.2811 88.9403 92.1958C88.6811 91.4256 90.0033 90.7042 90.1199 90.0576C90.4018 88.4848 91.4453 87.4222 91.9087 86.1354L94.4137 79.1716C94.5724 78.7297 94.1414 78.3982 93.8984 78.3008C93.2535 78.044 90.3273 79.2691 90.7875 78.9799C88.4251 80.4714 86.1146 81.6803 83.6712 82.8923L81.1306 84.1532C79.3483 85.037 77.8544 86.3921 75.8387 87.1557C73.7291 87.9551 68.6317 92.1795 66.7846 93.827L62.8214 97.3593C62.5978 97.5575 57.7402 101.704 58.1064 101.327C57.3935 102.065 57.0208 103.013 56.2236 103.732C55.9352 103.992 56.1134 104.619 56.4634 104.843L58.7318 106.302C58.3332 106.045 62.5297 107.621 64.769 106.851C65.7249 106.523 66.049 103.017 67.1476 104.356C68.6253 106.156 66.3763 106.724 69.2507 111.852V111.849ZM142.854 85.9794C143.424 85.115 143.346 83.591 142.685 83.0191C141.804 82.2587 140.43 82.3952 139.334 82.3009C139.457 83.0093 139.195 83.9224 139.645 84.3839C140.251 85.0078 141.201 84.3741 141.865 84.0427C142.708 84.5106 142.293 85.362 142.854 85.9794ZM134.052 98.1067C134.856 97.4632 134.341 96.4234 134.681 95.8905C135.465 94.6686 135.831 93.931 135.87 92.5045C135.922 90.6945 136.285 88.7383 136.726 86.938C136.875 86.3304 138.236 85.8007 138.563 84.8941C137.857 84.6341 137.536 85.7227 136.985 85.9924C134.658 87.1232 133.79 88.9202 134.655 91.3216C134.908 92.0268 133.563 92.4622 132.801 92.4037C132.863 93.3331 132.613 94.0967 132.458 94.9741C132.267 96.0594 132.837 97.1708 132.429 98.3406C131.994 99.5819 131.495 101.46 132.643 102.406C134.243 102.373 133.206 98.7858 134.052 98.1132V98.1067ZM138.203 104.073C138.109 105.35 138.45 106.101 137.228 106.806C136.846 107.027 136.541 107.816 136.567 108.239C136.586 108.567 136.807 109.35 137.371 109.399C137.928 108.19 140.206 106.516 140.43 104.7L141.25 97.9799C140.592 94.6654 140.3 91.0389 141.46 87.6172C141.651 87.0518 142.782 86.7268 141.745 85.8819C141.567 86.9608 140.705 87.3735 140.332 88.1046C139.863 89.0242 138.767 91.0389 138.8 92.004C138.855 93.762 137.915 96.9238 138.045 97.8727C138.181 98.8703 138.945 99.8029 137.782 100.684C139.189 101.619 138.301 102.747 138.203 104.066V104.073ZM155.038 104.044C153.872 103.338 153.479 103.163 152.715 103.111C151.71 103.039 151.525 101.418 150.91 101.145C149.063 100.326 148.113 99.1758 147.189 97.5315C147.134 97.434 146.149 97.1123 145.141 93.1576C144.804 91.8318 144.856 91.2014 145.394 89.9373C145.718 89.1769 145.67 88.0916 146.927 87.7666C146.421 86.6586 145.874 87.1037 145.193 87.2857C144.591 87.4482 144.432 88.0786 144.036 88.5303C142.915 89.8106 143.003 90.9154 143.032 92.4752C143.048 93.3428 141.726 94.3924 142.121 95.2926C142.355 95.559 143.184 95.5233 143.285 95.9847C143.343 96.2577 142.857 96.9108 143.016 97.122C145.598 100.58 146.645 100.84 150.025 103.166C150.018 103.16 155.378 105.142 155.041 104.044H155.038ZM31.7898 94.4867C32.5934 92.9366 34.0906 93.3526 34.9169 93.5801C35.6655 92.2477 34.0614 91.0259 32.7943 90.6587L29.3885 89.6741C28.2381 89.3427 26.9354 90.5677 25.6294 90.4898C25.8854 92.407 26.7863 91.1429 29.7093 93.0959L31.7865 94.4834L31.7898 94.4867ZM42.098 91.7928C42.0818 93.1381 42.5549 94.6264 43.8868 95.1593C44.4344 95.3803 45.0728 94.6037 45.0275 94.126C44.8557 92.2705 43.284 92.5175 42.098 91.7896V91.7928ZM52.4095 124.07C51.5313 125.471 50.517 126.251 49.2953 126.979C47.581 127.996 48.9712 128.87 41.8387 132.789C40.7045 133.413 34.6577 135.317 34.2072 134.453C33.8086 133.689 35.6752 130.888 35.7432 129.312C35.7821 128.431 36.346 127.076 36.1548 126.404C35.6752 124.724 34.9234 121.705 35.4062 119.973C35.565 119.407 35.1243 118.439 35.2345 117.571L35.7238 113.659C35.8016 113.051 35.9733 112.245 35.3122 112.083C34.8813 111.979 34.3498 111.953 34.0128 112.726C33.8864 113.012 34.2623 113.259 34.4146 113.86C34.6998 115.137 33.504 116.648 32.4379 117.406C32.0198 117.705 31.2356 117.136 31.0606 116.782C30.4935 115.635 31.4689 114.098 30.5227 113.734C28.695 114.468 26.5789 115.596 24.4628 115.228C23.468 115.056 22.0907 114.211 21.5399 115.716C21.313 116.333 21.1996 117.068 20.5612 117.224C19.9747 117.367 18.9928 117.536 18.7238 116.85C18.2345 115.605 18.8793 114.488 19.602 113.353C17.5896 112.249 15.8138 111.098 14.3814 109.431C13.6718 108.606 13.8208 108.005 14.268 107.059C14.5078 106.549 13.688 105.535 14.1481 104.944C15.036 103.797 16.5526 103.446 17.7549 102.773C18.4937 102.36 18.8502 102.234 19.3233 102.753C19.7964 103.273 19.8515 104.099 19.3363 104.365L17.4243 105.36C16.8119 105.678 17.9299 106.724 18.6363 106.503C19.1029 106.357 19.4043 105.967 19.4367 105.314C19.4983 104.027 21.0538 104.453 21.6565 103.962L25.1174 101.132C23.2379 100.427 21.6306 100.843 19.8807 100.674C18.7465 100.563 18.1826 101.291 17.554 101.905C17.1294 102.24 15.9628 101.652 15.4865 102.172C14.4722 103.273 13.1079 104.408 12.5019 105.792C12.0547 106.822 12.0191 107.833 11.0955 108.707C9.34561 110.357 7.97161 115.102 9.42338 117.757L8.58731 120.093C6.88278 124.863 5.15556 128.181 5.90737 133.007C6.26707 135.317 7.66051 134.908 8.70722 137.679C9.28728 136.38 9.7442 135.242 10.914 134.323C11.4973 133.861 12.5667 134.937 12.9815 135.564C13.5195 136.37 12.2686 140.299 9.69883 140.429C10.8395 146.145 14.1805 145.186 15.48 146.931C15.8591 147.441 15.3957 148.361 15.8559 148.715C16.3161 149.069 16.8119 149.751 17.5961 149.615C20.101 149.18 23.0013 149.193 25.166 147.808C26.203 147.145 26.5627 146.508 27.9594 146.437C28.9575 146.385 30.0625 145.823 31.268 146.255C32.7101 146.768 33.8378 146.018 35.0303 145.508L37.1043 144.624C37.9987 144.24 38.5593 143.73 39.256 143.096C40.0921 142.339 41.6962 142.846 42.6165 142.203C43.634 141.491 44.8654 141.065 45.8182 140.312C47.2278 139.194 48.55 138.355 50.1378 137.52C51.3952 136.861 51.9979 135.174 53.2099 134.443C53.9649 133.988 54.3992 133.468 54.1723 132.49C53.683 130.368 53.4173 128.292 53.1159 126.16C53.0122 125.422 53.1418 124.73 52.4127 124.077L52.4095 124.07ZM30.1954 101.606C30.3445 101.506 29.8973 100.986 29.732 101.005C30.4352 100.917 25.0137 103.267 25.6586 104.125C26.0734 104.411 29.5343 102.052 30.1954 101.606ZM25.6327 110.851C26.1836 112.008 27.3016 111.547 28.183 111.336C30.7463 110.721 35.3058 109.103 36.4659 106.503C36.7737 105.808 38.1153 105.057 37.6487 104.047C37.3084 103.309 36.0803 101.288 35.0886 101.535C34.8359 101.6 34.6058 101.873 34.5475 102.123C35.1243 102.299 35.497 102.565 35.6946 102.929C35.8502 103.208 35.7951 104.04 35.3414 104.187C33.8054 104.684 32.9013 105.802 31.7087 106.702C30.7755 107.404 29.9783 107.823 29.2556 108.811C28.4131 109.964 25.0753 109.675 25.6359 110.848L25.6327 110.851ZM41.6151 104.528C42.516 103.927 43.0345 103.306 43.9451 102.588C43.054 101.437 40.9346 103.169 40.9476 103.777C40.9541 104.105 41.1453 104.843 41.6151 104.528ZM50.9318 111.413L48.8286 110.822C47.9375 112.125 48.0995 113.464 47.9829 114.9C47.8403 116.681 46.2492 122.124 45.0631 121.364C44.146 120.775 45.87 121.087 44.8719 118.202C44.5803 117.354 45.6885 116.161 45.3515 115.375C44.765 114.007 44.9691 113.171 45.4617 111.784L46.2427 109.587C46.6315 108.495 47.0334 107.599 47.9602 106.617C47.0658 106.133 46.3853 105.681 45.5103 105.353C42.8595 107.618 41.6573 110.819 41.6281 114.312L41.5406 124.678C41.5341 125.409 41.0643 126.657 41.7124 127.135C42.7558 127.908 43.3424 125.273 43.997 125.5C44.6516 125.728 43.2452 127.505 43.9613 128.808C46.314 124.902 45.8603 127.443 47.3866 124.704C48.2518 123.151 49.6161 121.828 50.0795 120.09C50.261 119.404 50.154 118.588 50.5623 117.9C51.5118 116.301 51.8326 111.667 50.9253 111.413H50.9318ZM60.9484 112.7C61.3113 113.646 61.7877 114.098 62.4293 114.205C62.857 114.276 63.9783 114 63.7255 113.376C62.857 111.228 60.5562 110.091 58.7707 108.781C58.398 108.508 58.2036 108.047 57.8698 107.982C57.6008 107.93 56.862 108.027 56.9236 108.531C56.956 108.794 60.6113 111.82 60.9484 112.7ZM107.988 114.595C108.552 113.522 109.498 112.892 109.262 111.485C109.23 111.284 109.631 110.92 109.547 110.676C109.411 110.286 109.019 110.452 108.73 110.585C108.617 110.637 108.594 110.747 108.445 110.985L104.514 116.35C105.27 117.207 106.025 117.263 106.984 116.84C107.943 116.418 107.486 115.553 107.988 114.595ZM102.337 118.192C102.761 117.565 103.393 117.367 104.028 116.72C101.621 115.908 101.517 116.203 99.0671 117.282C98.9342 117.594 99.1773 118.296 98.9634 118.517C98.6556 118.832 98.1727 118.848 97.7709 119.073C97.1552 119.411 97.1455 120.031 97.382 120.496C97.5732 120.866 98.2634 120.941 98.5421 120.496C100.007 118.169 100.84 120.395 102.334 118.199L102.337 118.192ZM71.3895 129.617C72.1024 128.565 72.919 128.74 73.8652 128.873C74.3124 128.935 74.4648 128.181 74.3124 127.96C74.1861 127.775 73.8944 127.391 73.5509 127.395C72.5301 127.411 72.2158 126.618 71.6033 126.261C70.7057 125.737 71.5612 124.863 71.2145 124.129C70.5145 122.644 68.6998 119.203 69.8858 117.893C68.9331 116.873 67.0406 116.84 66.0166 117.714C66.8689 118.465 66.4703 119.492 66.6842 120.366C67.8572 125.185 67.1897 123.148 66.5869 127.56C67.7989 128.958 69.2345 128.038 71.3895 129.614V129.617ZM64.4579 125.065C62.2154 124.204 64.4903 120.207 61.3081 118.056C61.0034 117.848 60.2322 118.225 59.9567 118.53C59.5095 119.027 60.3845 119.934 60.2678 120.441C59.9146 121.981 60.2257 122.751 61.3145 123.778C62.183 124.597 63.0029 125.877 64.4579 125.065ZM86.309 123.58C85.5864 122.654 84.3614 122.14 83.5092 121.64C82.5986 121.104 81.3736 121.715 80.5052 121.36C79.5557 120.974 78.8622 120.811 77.7766 121.042C77.1933 121.058 76.7688 120.168 76.1434 120.005C75.424 120.444 74.711 120.662 73.794 121.396C74.6495 122.335 75.7772 123.053 77.028 123.486L80.1519 124.568C82.8902 123.563 85.5442 124.854 86.6006 127.755C86.7724 126.41 87.1418 124.646 86.309 123.58ZM120.64 130.293C121.216 130.667 126.217 129.299 125.718 129.715C125.996 129.484 126.673 127.479 126.158 127.59L125.034 127.83C126.33 127.554 120.886 127.596 118.102 126.14C119.418 126.829 111.611 120.694 113.4 122.338L112.11 121.152C108.63 122.351 109.161 119.693 105.545 122.026L103.594 122.117C103.824 123.092 103.471 123.853 102.852 124.841C106.271 127.336 107.023 125.299 108.176 125.828C109.064 126.235 109.962 125.939 110.704 125.783C111.401 126.898 112.535 127.476 113.689 128.002C114.719 128.474 115.494 129.013 116.68 128.191C117.01 127.963 117.707 127.882 117.898 128.126L118.533 128.935L120.636 130.297L120.64 130.293ZM65.699 133.462C65.3134 132.691 64.406 131.921 63.7709 132.09C63.4274 132.181 62.695 132.951 62.358 132.464C60.4039 129.621 62.371 127.934 59.2924 125.526C59.0785 125.357 58.8096 125.721 58.8452 125.867C59.0202 126.566 59.7558 126.293 60.1868 127.112C60.3877 127.492 59.5679 127.824 59.6003 128.119C60.216 134.202 57.9379 129.14 62.3515 137.004L65.699 133.465V133.462ZM77.6308 141.472C76.7882 142.349 77.8511 144.357 75.9586 145.186C75.2878 145.478 74.6009 144.9 74.0532 144.679C73.0195 144.607 74.8601 149.846 75.8452 149.651C77.2322 145.735 79.3483 142.333 82.5013 139.785C83.5189 138.963 84.4911 137.731 85.1392 136.578C85.1813 135.467 85.0905 132.948 86.4678 132.74C88.2242 133.065 87.1256 135.814 87.777 136.633L90.7065 140.321C90.1069 138.316 88.9695 136.919 89.6824 134.956C90.2366 133.432 92.3203 137.559 92.0837 137.026C94.2289 141.878 94.1641 142.138 98.7106 143.334C100.072 143.691 101.251 144.393 102.771 143.844C103.205 143.688 107.8 143.285 107.742 144.309C108.708 143.919 109.771 144.019 110.717 144.624C111.132 144.006 111.595 143.551 112.619 142.879C110.124 142.408 110.244 140.75 109.45 139.353L106.974 134.995C105.911 133.124 103.257 132.058 102.969 130.027C98.4222 129.952 98.7625 128.857 95.9562 131.288C97.5862 133.25 98.8046 133.098 100.671 135.132C99.3944 135.97 98.9634 134.553 98.1662 134.196C97.369 133.839 96.439 133.962 96.3839 132.672L94.54 132.76C93.8952 134.115 98.1468 136.903 98.6134 137.023C99.8157 137.329 100.311 137.949 101.31 138.303L103.529 139.096C104.08 139.291 105.84 139.379 105.208 140.494C104.576 141.608 102.982 140.422 102.227 140.364C99.3717 140.139 98.4741 138.758 97.6088 138.414C95.9659 137.757 95.321 136.705 94.2775 135.499C93.435 134.527 93.1984 133.692 92.7512 132.405C92.4337 131.499 90.6287 131.258 90.4116 130.043C90.3079 130.313 90.2204 130.488 90.1037 130.615C89.9222 130.816 89.5917 130.93 89.3454 130.654C87.7737 128.883 87.8872 131.219 85.4276 129.803C85.2267 130.44 85.3498 131.028 85.0452 131.18C84.1962 131.606 82.3296 130.378 82.3652 131.522C82.8189 132.256 83.9369 132.737 83.8203 133.735C83.6679 135.041 82.4949 135.918 81.2213 136.334C77.7896 137.452 80.5538 138.446 77.634 141.491L77.6308 141.472ZM75.7124 135.45C75.7221 134.401 76.6586 134.508 77.0507 134.254C78.0099 133.644 78.8265 132.743 80.0385 132.535C80.3723 132.477 80.7417 132.685 80.8616 132.457C80.9912 132.214 81.3704 131.853 81.3639 131.489C80.7709 131.206 80.1649 131.145 79.4163 130.937L75.8549 133.748C74.1763 135.073 73.0357 139.418 73.8004 140.851L74.5425 138.996C75.0092 137.829 75.6994 136.802 75.7156 135.447L75.7124 135.45ZM62.5881 148.601C63.1325 148.003 62.6626 146.95 63.3237 146.606C63.826 146.346 64.3153 146.18 64.5227 145.621C64.6394 145.313 64.7722 144.848 64.2894 144.396C62.5168 146.05 59.6943 147.353 60.822 149.699C61.1655 148.842 62.0988 149.137 62.5881 148.598V148.601Z" fill="#162647"/>
<path d="M109.525 155.028C107.671 155.015 105.824 151.398 107.165 149.916C108.015 148.977 110.037 150.303 110.532 151.161C111.112 152.165 111.226 154.742 109.525 155.028Z" fill="#162647"/>
<path d="M90.4831 166.993C91.1733 166.938 93.4158 169.418 93.0431 170.873C92.8746 171.533 92.3237 172.008 91.5751 172.176C90.6516 172.388 90.321 171.501 89.6211 170.961C88.8563 170.373 88.1952 169.756 88.4059 168.67C88.5387 167.988 89.4623 167.071 90.4831 166.99V166.993Z" fill="#162647"/>
<path d="M110.733 169.243C110.432 169.662 110.351 170.088 109.998 170.201C109.479 170.367 106.349 168.758 106.751 166.848C106.874 166.266 107.635 165.103 108.189 164.898C109.1 164.56 109.709 165.736 110.189 166.178C111.148 167.056 111.618 168.011 110.733 169.246V169.243Z" fill="#162647"/>
<path d="M80.5702 162.216C79.6499 162.616 78.5773 162.973 77.7217 162.411C77.2519 162.103 77.4042 161.258 76.957 160.93C76.176 160.358 75.745 159.275 76.5778 158.515C77.2097 157.94 78.1689 157.872 79.0212 157.846C80.1619 159.071 80.8068 160.491 80.567 162.216H80.5702Z" fill="#162647"/>
<path d="M88.1758 153.631C87.4013 153.062 87.0156 152.594 86.9735 151.635C86.9281 150.599 87.236 149.887 88.2568 149.556C89.2095 149.247 89.9224 150.014 90.4506 150.982C90.927 151.863 91.5297 152.851 90.6969 153.65C89.9872 154.332 89.0475 154.274 88.1758 153.631Z" fill="#162647"/>
<path d="M121.476 142.787C121.673 144.402 119.593 145.15 119.395 145.146C118.945 145.14 116.388 142.504 118.093 141.052C118.786 140.464 121.307 141.419 121.476 142.787Z" fill="#162647"/>
<path d="M100.555 163.588C100.263 164.212 99.5728 164.076 99.0737 163.943C99.1969 163.975 96.841 162.321 97.2072 160.371C97.3206 159.767 97.5571 159.367 98.0886 159.182C98.4937 159.039 101.595 161.353 100.551 163.588H100.555Z" fill="#162647"/>
<path d="M119.525 158.977C117.632 158.262 116.527 156.238 116.689 154.249C117.331 154.486 117.795 154.097 118.297 154.074C120.199 153.989 120.374 157.382 119.525 158.977Z" fill="#162647"/>
<path d="M105.14 178.747C105.053 179.572 104.32 179.829 103.844 179.884C103.089 179.972 102.642 179.748 102.156 179.003C101.731 178.35 101.222 176.579 102.243 176.108C103.685 175.445 105.286 177.359 105.14 178.747Z" fill="#162647"/>
<path d="M118.371 171.137C117.169 171.189 116.492 167.939 117.104 167.481C117.487 167.192 117.898 167.377 118.362 167.77C119.308 168.573 119.198 170.019 118.371 171.137Z" fill="#162647"/>
<path d="M124.561 158.473C124.681 159.041 124.237 160.127 123.676 160.24C122.824 160.097 122.591 158.492 123.086 157.901C123.294 157.654 123.78 157.618 123.936 157.621C124.166 157.628 124.454 157.962 124.561 158.469V158.473Z" fill="#162647"/>
<path d="M34.1621 123.067C34.2334 125.442 32.1238 128.022 31.0738 127.385C30.241 126.882 29.5086 125.484 29.6059 124.438C29.6869 123.603 30.8632 123.366 31.0479 122.631C31.2845 121.692 31.8872 121.192 32.665 121.224C33.7765 121.27 34.1265 121.955 34.1589 123.067H34.1621Z" fill="#162647"/>
<path d="M23.4324 135.253C23.6528 136.241 22.2691 138.454 20.9891 138.678C19.1711 138.993 18.0207 136.777 18.011 136.543C18.011 136.517 20.0752 133.648 21.0085 133.323C21.6113 133.115 23.3288 134.782 23.4324 135.25V135.253Z" fill="#162647"/>
<path d="M22.9983 121.465C25.1695 122.625 22.833 126.983 21.66 127.369C20.9892 127.59 20.1758 127.528 19.7124 126.924C19.2911 126.368 19.1096 125.332 19.5925 124.698C21.472 122.219 21.3748 120.597 22.9983 121.465Z" fill="#162647"/>
<path d="M35.6397 142.72C34.6805 144.156 31.8806 144.338 31.4432 143.75C30.8534 142.961 31.1159 142.132 31.7218 141.45C32.2922 140.806 32.4575 138.71 33.9352 138.632C34.4925 138.603 34.7809 139.068 35.2184 139.425C36.3818 140.371 36.4207 141.55 35.6397 142.72Z" fill="#162647"/>
<path d="M23.5394 145.713C22.8426 146.727 21.7117 147.682 20.6617 147.874C20.0007 147.994 19.2488 147.497 19.0803 147.091C18.8891 146.632 18.9118 145.719 19.4012 145.336C20.221 144.696 20.2405 143.536 20.8594 142.857C21.8057 141.813 24.0319 144.995 23.5394 145.713Z" fill="#162647"/>
<path d="M14.116 123.927C14.278 124.841 12.0615 127.395 10.8657 126.833C8.9311 125.919 10.2695 122.491 10.7782 121.942C11.8379 120.798 14.0253 123.424 14.116 123.927Z" fill="#162647"/>
<path d="M12.7679 114.81C11.9675 115.028 11.3939 114.121 11.1833 113.683C10.8301 112.942 12.1846 110.563 13.0174 110.423C13.5262 110.339 14.4336 110.44 14.6669 111.203C15.0622 112.509 14.2942 114.397 12.7712 114.81H12.7679Z" fill="#162647"/>
<path d="M49.8107 134.577C48.7769 135.087 47.4742 135.005 46.7678 133.985C46.0613 132.965 47.1696 130.859 48.4399 131.09C49.9209 131.356 50.2125 133.407 49.8107 134.577Z" fill="#162647"/>
<path d="M81.0562 56.0263L80.272 58.1678C79.491 57.4691 79.0924 56.2083 79.7243 55.2692C79.9479 54.9377 80.3659 54.7038 80.596 54.7525C80.946 54.824 81.2668 55.4609 81.0594 56.0263H81.0562Z" fill="#162647"/>
<path d="M83.7168 46.6533C83.7103 47.43 83.0751 46.8386 82.9325 46.936C82.5826 47.1733 83.3052 47.6249 82.7349 48.1936C82.5177 47.9986 79.7535 44.4924 81.2248 44.5899C82.4627 44.6711 81.5229 46.1952 83.7168 46.6501V46.6533Z" fill="#162647"/>
<path d="M75.0288 40.1579C74.2543 40.4049 73.8784 39.5178 73.9043 39.1343C73.9303 38.7509 73.8428 37.6623 74.5946 37.6428C75.6445 37.6168 76.0723 39.8232 75.0288 40.1579Z" fill="#162647"/>
<path d="M63.34 38.7968C62.7373 38.9203 61.6322 38.0754 61.8591 37.4872C62.2382 36.4961 63.0937 36.7204 63.5636 37.2695C63.865 37.6237 64.0853 38.6408 63.34 38.7968Z" fill="#162647"/>
<path d="M54.0915 58.8848C54.6813 60.5355 55.9516 60.1228 55.8187 60.9092C55.7798 61.1367 55.6308 61.3902 55.3585 61.4421C55.3359 61.4454 53.6832 60.6103 53.6216 60.2528C53.5276 59.7296 53.5114 59.1252 54.0915 58.8848Z" fill="#162647"/>
<path d="M58.2168 58.9671C58.5473 59.3148 58.0094 59.9452 57.8215 60.1792C57.5979 60.4652 56.6224 60.6309 56.4507 60.1662C56.266 59.669 56.3891 58.9606 56.6711 58.8469C56.9854 58.7234 57.6627 58.3822 58.2168 58.9639V58.9671Z" fill="#162647"/>
<path d="M82.9455 72.3278C82.4756 72.8347 81.9118 72.11 81.8405 71.8078C81.7432 71.4016 81.5261 70.5763 82.0867 70.2903C82.9747 69.8354 83.7848 69.2927 84.9741 69.3089C84.5075 70.4105 83.8399 71.3659 82.9455 72.331V72.3278Z" fill="#162647"/>
<path d="M164.332 98.8091L162.634 97.4703C161.989 96.9602 160.965 96.6092 161.131 95.6051C161.289 94.653 161.882 93.7724 162.615 93.1582C164.796 93.4182 166.244 97.7855 164.332 98.8091Z" fill="#162647"/>
<path d="M171.056 94.7513C170.992 94.7188 173.036 96.9253 172.388 98.0204C171.876 98.888 170.531 98.771 170.084 98.0139C168.325 95.034 167.407 95.6352 168.205 93.8902C168.315 93.6465 168.697 93.458 169.161 93.5555C169.54 93.6367 169.695 94.2184 170.061 94.6149C170.343 94.9236 170.836 94.6343 171.06 94.7513H171.056Z" fill="#162647"/>
<path d="M176.16 104.119C178.357 104.229 179.56 107.511 178.873 107.914C176.828 109.12 174.336 105.753 174.705 104.873C175.003 104.154 175.493 104.083 176.16 104.119Z" fill="#162647"/>
<path d="M177.92 90.5C176.867 90.7145 176.786 89.4959 175.276 87.9849C174.77 87.478 174.88 86.7891 175.396 86.3894C176.131 85.8142 179.009 87.6307 178.724 89.5447C178.656 89.9996 178.296 90.4253 177.923 90.5H177.92Z" fill="#162647"/>
<path d="M167.952 106.755C166.915 107.82 165.667 107.362 164.983 106.391C164.138 105.887 163.878 104.993 164.478 104.136C165.142 103.967 166.179 103.729 166.772 104.298C167.365 104.867 167.456 105.783 167.952 106.758V106.755Z" fill="#162647"/>
<path d="M173.509 115.041C173.14 115.48 169.76 114.385 169.679 113.004C169.624 112.094 171.024 111.97 171.704 112.081C172.589 112.227 174.122 114.31 173.509 115.041Z" fill="#162647"/>
<path d="M161.808 114.709C161.931 114.784 162.145 116.256 161.575 116.636C161.659 116.578 157.498 117.049 157.799 115.239C158.02 113.923 160.252 113.995 161.079 114.722C161.299 114.914 161.685 114.635 161.808 114.709Z" fill="#162647"/>
<path d="M159.238 95.4657C158.933 95.9304 157.89 96.3074 157.469 96.0409C156.814 95.6282 156.036 93.9125 156.432 93.2625C156.827 92.6126 158.101 92.9538 158.415 93.3503C158.82 93.8605 159.802 94.6046 159.235 95.4657H159.238Z" fill="#162647"/>
<path d="M146.153 113.276C145.783 114.225 144.805 114.225 144.267 113.75C143.839 113.37 143.369 112.733 143.492 112.002C143.583 111.459 144.344 110.53 145.074 110.705C145.803 110.881 146.425 112.577 146.149 113.279L146.153 113.276Z" fill="#162647"/>
<path d="M182.865 103.99C182.774 104.597 181.86 104.532 181.582 104.467C181.582 104.467 179.952 102.687 180.156 102.176C180.282 101.858 180.768 101.647 181.426 101.949C182.084 102.251 182.995 103.128 182.868 103.99H182.865Z" fill="#162647"/>
<path d="M155.56 97.3198C155.706 97.6773 154.737 97.8853 154.51 97.6091C154.299 97.3523 153.975 97.0144 153.969 96.6147C153.966 96.3125 154.494 95.7861 154.915 95.7991C154.896 96.4165 155.336 96.7739 155.557 97.3231L155.56 97.3198Z" fill="#162647"/>
</g>
<defs>
<clipPath id="clip0_22_11794">
<rect width="187" height="186" fill="white"/>
</clipPath>
</defs>
</svg>
